<?xml version="1.0" encoding="UTF-8"?>
<svg width="152px" height="14px" viewBox="0 0 152 14" version="1.1" xmlns="http://www.w3.org/2000/svg" xmlns:xlink="http://www.w3.org/1999/xlink">
    <!-- Generator: Sketch 47.1 (45422) - http://www.bohemiancoding.com/sketch -->
    <title>Logo_Black</title>
    <desc>Created with Sketch.</desc>
    <defs>
        <filter x="-0.0%" y="-0.4%" width="100.1%" height="101.7%" filterUnits="objectBoundingBox" id="filter-1">
            <feOffset dx="0" dy="1" in="SourceAlpha" result="shadowOffsetOuter1"></feOffset>
            <feColorMatrix values="0 0 0 0 0.2   0 0 0 0 0.231372549   0 0 0 0 0.239215686  0 0 0 0.1 0" type="matrix" in="shadowOffsetOuter1" result="shadowMatrixOuter1"></feColorMatrix>
            <feMerge>
                <feMergeNode in="shadowMatrixOuter1"></feMergeNode>
                <feMergeNode in="SourceGraphic"></feMergeNode>
            </feMerge>
        </filter>
    </defs>
    <g id="Menu-Logged-In" filter="url(#filter-1)" stroke="none" stroke-width="1" fill="none" fill-rule="evenodd">
        <g id="Logo_Black" transform="translate(250.000000, 54.000000)">
            <path d="M10.6145321,3.92427036 L6.94167198,8.81206189 L6.52282778,8.81206189 L2.93040617,3.90808795 L2.93040617,12.0919902 L0.80534893,12.0919902 L0.80534893,0.837651466 L3.25374614,0.837651466 L6.78053061,5.67592834 L10.3073151,0.837651466 L12.7396775,0.837651466 L12.7396775,12.0920782 L10.6146202,12.0920782 L10.6146202,3.92435831 L10.6145321,3.92427036 L10.6145321,3.92427036 Z M21.5779597,5.46705212 L24.5749776,0.821205212 L27.1343853,0.821205212 L27.1343853,0.9172443 L22.6421623,7.42890554 L22.6421623,12.0751922 L20.5151667,12.0751922 L20.5151667,7.42890554 L16.183116,0.9172443 L16.183116,0.821205212 L18.7112469,0.821205212 L21.5779597,5.46705212 Z M30.1607417,12.0757199 L30.1607417,0.838091205 L38.2609806,0.838091205 L38.2609806,2.87953746 L32.2866799,2.87953746 L32.2866799,5.94979805 L37.9399313,5.94979805 L37.9399313,7.91191531 L32.2866799,7.91191531 L32.2866799,12.0758958 L30.1607417,12.0758958 L30.1607417,12.0757199 Z M51.7071658,0.838091205 L51.7071658,7.28379153 C51.7071658,10.6126189 49.6624589,12.3159935 46.8265824,12.3159935 C44.1210991,12.3159935 41.8186013,10.6764691 41.8186013,7.28396743 L41.8186013,0.838267101 L43.9283285,0.838267101 L43.9283285,7.28396743 C43.9283285,9.30852769 45.08689,10.3870326 46.8427934,10.3870326 C48.5981682,10.3870326 49.5974385,9.21292834 49.5974385,7.28387948 L49.5974385,0.838179153 L51.7071658,0.838179153 L51.7071658,0.838091205 L51.7071658,0.838091205 Z M58.7917471,2.75051792 L55.215889,2.75051792 L55.215889,0.821205212 L64.4911648,0.821205212 L64.4911648,2.75051792 L60.9179497,2.75051792 L60.9179497,12.0752801 L58.7917471,12.0752801 L58.7917471,2.75051792 L58.7917471,2.75051792 Z M78.0978746,0.838091205 L78.0978746,7.28379153 C78.0978746,10.6126189 76.0538726,12.3159935 73.2178198,12.3159935 C70.5121603,12.3159935 68.2100149,10.6764691 68.2100149,7.28396743 L68.2100149,0.838267101 L70.3192135,0.838267101 L70.3192135,7.28396743 C70.3192135,9.30852769 71.478656,10.3870326 73.2345595,10.3870326 C74.9895819,10.3870326 75.989557,9.21292834 75.989557,7.28387948 L75.989557,0.838179153 L78.0978746,0.838179153 L78.0978746,0.838091205 Z M84.4096117,2.79932899 L84.4096117,6.39938762 L87.6465356,6.39938762 C88.9998059,6.39938762 89.5795271,5.50003257 89.5795271,4.60014984 C89.5795271,3.69868404 88.9830662,2.79941694 87.6465356,2.79941694 L84.4096117,2.79941694 L84.4096117,2.79932899 Z M92.267566,12.0751922 L89.7398756,12.0751922 L86.4553758,8.31330945 L84.4096117,8.31330945 L84.4096117,12.0752801 L82.2827924,12.0752801 L82.2827924,0.805374593 C84.0704131,0.805374593 85.8580338,0.821557003 87.6465356,0.821557003 C90.3028571,0.837651466 91.7045844,2.60725081 91.7045844,4.55054723 C91.7045844,6.09332899 90.997113,7.6547557 88.8553161,8.08763518 L92.267566,11.9309577 L92.267566,12.0751922 Z M103.637327,12.0757199 L95.1970085,12.0757199 L95.1970085,0.821644951 L103.637327,0.821644951 L103.637327,2.87962541 L97.3079691,2.87962541 L97.3079691,5.46749186 L103.412663,5.46749186 L103.412663,7.44587948 L97.3079691,7.44587948 L97.3079691,9.98475896 L103.637327,9.98475896 L103.637327,12.0757199 L103.637327,12.0757199 Z" id="Shape" fill="#333333"></path>
            <path d="M115.118099,0.805374593 L117.243156,0.805374593 L117.243156,12.0758958 L115.921603,12.0758958 L115.921603,12.0926059 L109.995759,4.48625733 L109.995759,12.0758958 L107.870702,12.0758958 L107.870702,0.821644951 L109.592245,0.821644951 L115.118099,7.79881433 L115.118099,0.805374593 Z M123.038606,6.562443 C123.086182,8.41022801 124.085276,10.3870326 126.74336,10.3870326 C129.399681,10.3870326 130.398776,8.39501303 130.432255,6.54476547 C130.463091,4.64720195 129.399681,2.52484365 126.74336,2.52484365 C124.085276,2.52484365 122.990149,4.66338436 123.038606,6.5622671 L123.038606,6.562443 Z M132.524714,6.51284039 C132.492115,9.42277199 130.705376,12.332 126.74336,12.332 C122.782225,12.332 120.945266,9.48794137 120.945266,6.52814332 C120.945266,3.57089577 122.84566,0.595618893 126.74336,0.595618893 C130.62344,0.595618893 132.558193,3.57089577 132.524714,6.51275244 L132.524714,6.51284039 Z M147.85561,12.075456 L146.051249,12.075456 L144.649522,8.53775244 L143.457481,4.98536156 L142.281299,8.5707329 L140.913932,12.075456 L139.109572,12.075456 L134.969587,0.821644951 L137.35455,0.821644951 L140.00999,8.93941042 L142.749129,0.821557003 L144.134116,0.821557003 L146.952549,8.93941042 L149.528696,0.821557003 L151.912778,0.821557003 L147.85561,12.0756319 L147.85561,12.075456 L147.85561,12.075456 Z" id="Shape" fill="#00B2CB"></path>
        </g>
    </g>
</svg>